<?xml version="1.0" standalone="no"?><!DOCTYPE svg PUBLIC "-//W3C//DTD SVG 1.1//EN" "http://www.w3.org/Graphics/SVG/1.1/DTD/svg11.dtd"><svg class="icon" width="200px" height="200.00px" viewBox="0 0 1024 1024" version="1.1" xmlns="http://www.w3.org/2000/svg"><path fill="#333333" d="M1007.488882 860.401362c-10.188447 14.582277-38.012681 49.884086-69.243142 82.434711-54.42908 56.716694-80.358727 64.264811-95.132478 64.264811-0.473647 0-0.937216 0-1.390708-0.020155l-0.624811-0.020155c-20.175341-0.634888-73.757903-2.338002-159.911246-43.0414-105.391468-49.793387-224.105514-140.340561-352.856843-269.112044s-219.278347-247.52584-269.061657-352.947541c-40.683243-86.16342-42.376279-139.725827-43.011167-159.891091l-0.010078-0.5845c-0.463569-14.531889 5.69384-40.36076 64.214423-96.563496 32.53047-31.230461 67.842356-59.084928 82.454866-69.303607 11.750473-8.183006 30.56534-17.464469 53.693416-15.297786 17.363693 1.622492 32.338996 9.493093 41.086347 21.586204 11.750473 16.265235 124.095481 186.60679 136.369989 205.986002 12.133422 19.107116 10.228757 47.8988-5.119417 76.982733-8.868282 16.920279-38.949897 69.767177-52.081001 92.754166 13.876846 20.044333 52.725967 71.80285 134.838195 153.905001 107.376754 107.396909 162.853903 140.84444 163.398094 141.166923 9.553558 5.673685 12.738078 18.018736 7.084548 27.59245-5.65353 9.563636-17.958271 12.76831-27.542062 7.134936-2.378312-1.400785-59.61904-35.553748-171.45009-147.384798-111.851205-111.841128-145.95378-169.102011-147.344488-171.490401-3.658166-6.227952-3.698477-13.937311-0.110854-20.205574 0.463569-0.816285 46.639101-81.467262 57.532979-102.237181 9.926429-18.824944 9.412472-32.44985 6.751987-36.632051-11.659775-18.401685-124.004782-188.74324-134.999436-203.960405-3.285295-4.544994-19.731927-10.289222-39.030518 3.154287-11.397758 7.971376-45.329013 34.364592-77.264906 65.000475-51.758518 49.611991-52.201932 66.381105-52.191854 66.552424l0.010078 0.574423c0.564345 17.87765 2.065907 65.353191 39.171604 143.948339 47.798024 101.219344 135.65448 216.174448 261.110436 341.660637 125.466033 125.486189 240.390904 213.352722 341.580016 261.160824 78.574993 37.125853 126.090844 38.637492 143.968494 39.201837l0.624811 0.020155c0.090698 0 4.323287-0.131009 14.733441-6.721755s26.997872-19.641229 51.768595-45.500333c30.615728-31.956048 56.978711-65.857071 64.950087-77.264906 13.604751-19.439677 7.961298-35.654524 3.426382-38.828966-13.050483-9.140377-183.603668-122.664462-203.889862-135.059902-4.434141-2.710873-15.892364-2.771338-30.545184 3.537235-2.086062 0.896906-4.192279 1.904665-6.268263 3.003123-9.845808 5.18996-22.039696 1.431018-27.239734-8.41479-5.200038-9.845808-1.431018-22.039696 8.41479-27.239734 3.0132-1.59226 6.096944-3.063588 9.17061-4.383753 25.718017-11.065197 50.3275-11.38768 67.489641-0.896906 20.669143 12.627224 190.395965 125.506344 205.996079 136.430455 12.455905 8.727196 20.497824 23.813352 22.049774 41.388675C1024.177376 819.526645 1022.383565 839.127563 1007.488882 860.401362zM977.51812 89.707357l-232.439683 232.439683 185.840893 0c11.125663 0 20.155186 9.029523 20.155186 20.155186 0 11.13574-9.029523 20.155186-20.155186 20.155186l-254.650698 0 0.020155-254.650698c0-11.13574 9.019446-20.155186 20.155186-20.155186 5.562831 0 10.601628 2.257381 14.249717 5.90547s5.90547 8.686885 5.90547 14.249717l-0.020155 185.840893 232.439683-232.439683c7.8706-7.8706 20.628833-7.8706 28.499433 0C985.398798 69.078524 985.388721 81.836757 977.51812 89.707357z" /></svg>