<?xml version="1.0" standalone="no"?><!DOCTYPE svg PUBLIC "-//W3C//DTD SVG 1.1//EN" "http://www.w3.org/Graphics/SVG/1.1/DTD/svg11.dtd"><svg class="icon" width="200px" height="200.00px" viewBox="0 0 1024 1024" version="1.1" xmlns="http://www.w3.org/2000/svg"><path fill="#333333" d="M1001.723647 221.053582l-233.907331 0-75.550697-113.320928c-3.796466-5.689582-10.181897-9.107425-17.027815-9.107425l-326.47561 0c-6.845918 0-13.231349 3.417843-17.027815 9.107425l-75.550697 113.320928L22.276353 221.053582c-11.2973 0-20.466124 9.15859-20.466124 20.466124l0 652.961452c0 11.2973 9.168824 20.466124 20.466124 20.466124l979.447295 0c11.2973 0 20.466124-9.168824 20.466124-20.466124l0-652.961452C1022.189771 230.212172 1013.020948 221.053582 1001.723647 221.053582zM981.257523 874.015034 42.742477 874.015034l0-612.029204 224.400816 0c6.835685 0 13.231349-3.417843 17.027815-9.117658l75.540464-113.310695 304.576857 0 75.540464 113.310695c3.796466 5.699816 10.19213 9.117658 17.027815 9.117658l224.400816 0L981.257523 874.015034 981.257523 874.015034zM777.322831 547.59059c0 12.013615-0.808412 24.098861-2.40477 35.918048-1.524726 11.205203-11.839653 19.053961-23.034623 17.539468s-19.053961-11.82942-17.529235-23.024389c1.350764-10.007935 2.036379-20.25123 2.036379-30.433126 0-59.935044-23.341614-116.288516-65.716724-158.673859-42.37511-42.37511-98.728582-65.716724-158.673859-65.716724s-116.288516 23.341614-158.673859 65.716724c-42.37511 42.385343-65.716724 98.738815-65.716724 158.673859 0 59.945277 23.341614 116.298749 65.716724 158.673859 42.385343 42.385343 98.728582 65.726957 158.673859 65.726957 56.210209 0 109.98495-20.875446 151.418618-58.788941 8.339946-7.623631 21.284769-7.05058 28.918633 1.289366 7.623631 8.339946 7.05058 21.284769-1.289366 28.918633-48.995901 44.820811-112.584148 69.51319-179.047886 69.51319-70.874187 0-137.501654-27.598568-187.612958-77.709873-50.111305-50.111305-77.709873-116.749004-77.709873-187.623191s27.598568-137.501654 77.709873-187.612958 116.738771-77.709873 187.612958-77.709873 137.511887 27.598568 187.612958 77.709873C749.724263 410.088936 777.322831 476.716402 777.322831 547.59059z" /></svg>